<svg width="168" height="82" viewBox="0 0 168 82" fill="none" xmlns="http://www.w3.org/2000/svg">
<rect width="168" height="82" fill="#1E1E1E"/>
<rect width="168" height="82" fill="#fafaf9"/>
<path d="M10.0833 70V36.6667H16.8333V48H17.8333C18.3889 46.9444 19.1528 46.0833 20.125 45.4167C21.125 44.7222 22.5 44.375 24.25 44.375C27.0278 44.375 29.1111 45.25 30.5 47C31.8889 48.75 32.5833 51.125 32.5833 54.125V70H25.8333V55.25C25.8333 53.5278 25.5278 52.2083 24.9167 51.2917C24.3056 50.3472 23.3056 49.875 21.9167 49.875C20.3056 49.875 19.0556 50.5139 18.1667 51.7917C17.2778 53.0417 16.8333 54.6111 16.8333 56.5V70H10.0833ZM46.9036 70.5C44.5703 70.5 42.6536 69.9444 41.1536 68.8333C39.6536 67.6944 38.5425 66.1389 37.8203 64.1667C37.0981 62.1944 36.737 59.9583 36.737 57.4583C36.737 54.875 37.0981 52.6111 37.8203 50.6667C38.5703 48.7222 39.6953 47.2083 41.1953 46.125C42.6953 45.0417 44.5842 44.5 46.862 44.5C48.612 44.5 50.0425 44.8472 51.1536 45.5417C52.2925 46.2083 53.1536 47.1111 53.737 48.25H54.737V45H60.987V70H54.737V66.75H53.737C53.1536 67.8056 52.3064 68.6944 51.1953 69.4167C50.0842 70.1389 48.6536 70.5 46.9036 70.5ZM48.6536 65.75C50.3481 65.75 51.6953 65.0139 52.6953 63.5417C53.7231 62.0417 54.237 60.0278 54.237 57.5C54.237 54.9444 53.7231 52.9306 52.6953 51.4583C51.6953 49.9861 50.3481 49.25 48.6536 49.25C47.1259 49.25 45.9175 49.9444 45.0286 51.3333C44.1675 52.6944 43.737 54.75 43.737 57.5C43.737 60.25 44.1675 62.3194 45.0286 63.7083C45.9175 65.0694 47.1259 65.75 48.6536 65.75ZM67.0801 70V45H73.2467V49.5833H74.2467C74.4134 48.75 74.719 47.9722 75.1634 47.25C75.6356 46.5 76.344 45.9028 77.2884 45.4583C78.2329 44.9861 79.4967 44.75 81.0801 44.75H82.4134V50.8333H80.5801C78.219 50.8333 76.4967 51.4306 75.4134 52.625C74.3579 53.8194 73.8301 55.6111 73.8301 58V70H67.0801ZM90.4102 70C89.7713 69.25 89.2574 68.3472 88.8685 67.2917C88.5074 66.2361 88.3268 64.6528 88.3268 62.5417V49.75H84.9102V45H88.4102V38.75H95.0352V45H99.0768V49.75H95.0352V61.8333C95.0352 64.0278 95.2852 65.7083 95.7852 66.875C96.2852 68.0417 96.8824 69 97.5768 69.75V70H90.4102ZM111.894 70.5C109.561 70.5 107.644 69.9444 106.144 68.8333C104.644 67.6944 103.533 66.1389 102.811 64.1667C102.088 62.1944 101.727 59.9583 101.727 57.4583C101.727 54.875 102.088 52.6111 102.811 50.6667C103.561 48.7222 104.686 47.2083 106.186 46.125C107.686 45.0417 109.574 44.5 111.852 44.5C113.602 44.5 115.033 44.8472 116.144 45.5417C117.283 46.2083 118.144 47.1111 118.727 48.25H119.727V45H125.977V70H119.727V66.75H118.727C118.144 67.8056 117.297 68.6944 116.186 69.4167C115.074 70.1389 113.644 70.5 111.894 70.5ZM113.644 65.75C115.338 65.75 116.686 65.0139 117.686 63.5417C118.713 62.0417 119.227 60.0278 119.227 57.5C119.227 54.9444 118.713 52.9306 117.686 51.4583C116.686 49.9861 115.338 49.25 113.644 49.25C112.116 49.25 110.908 49.9444 110.019 51.3333C109.158 52.6944 108.727 54.75 108.727 57.5C108.727 60.25 109.158 62.3194 110.019 63.7083C110.908 65.0694 112.116 65.75 113.644 65.75ZM129.57 78.3333V78.0833C130.404 77.1389 131.043 76.0417 131.487 74.7917C131.931 73.5417 132.154 72 132.154 70.1667V45H138.904V70.875C138.904 72.8472 138.681 74.375 138.237 75.4583C137.793 76.5417 137.223 77.5 136.529 78.3333H129.57ZM135.529 42.125C134.334 42.125 133.431 41.8194 132.82 41.2083C132.209 40.5694 131.904 39.75 131.904 38.75C131.904 37.75 132.209 36.9444 132.82 36.3333C133.431 35.6944 134.334 35.375 135.529 35.375C136.723 35.375 137.626 35.6944 138.237 36.3333C138.848 36.9444 139.154 37.75 139.154 38.75C139.154 39.75 138.848 40.5694 138.237 41.2083C137.626 41.8194 136.723 42.125 135.529 42.125Z" fill="black"/>
<path fill-rule="evenodd" clip-rule="evenodd" d="M152.75 18H150V23.5H152.75C151.231 23.5 150 24.7312 150 26.25V29H155.5V26.25C155.5 27.7688 156.731 29 158.25 29H161V23.5H158.25C159.769 23.5 161 22.2688 161 20.75V18H155.5V20.75C155.5 19.2312 154.269 18 152.75 18ZM155.5 23.5H152.75C154.269 23.5 155.5 24.7312 155.5 26.25V23.5ZM155.5 23.5V20.75C155.5 22.2688 156.731 23.5 158.25 23.5H155.5Z" fill="black"/>
</svg>
