<svg width="179" height="82" viewBox="0 0 179 82" fill="none" xmlns="http://www.w3.org/2000/svg">
<rect width="179" height="82" fill="#1E1E1E"/>
<rect width="179" height="82" fill="#fafaf9"/>
<path d="M18.4347 51.446V67H9.75213V30.6364H18.1506V44.7344H18.4524C19.0679 43.0535 20.0741 41.7396 21.4709 40.7926C22.8795 39.8456 24.6018 39.3722 26.6378 39.3722C28.5554 39.3722 30.2244 39.7983 31.6449 40.6506C33.0653 41.491 34.1662 42.6806 34.9474 44.2195C35.7405 45.7583 36.1312 47.5575 36.1193 49.6172V67H27.4368V51.3217C27.4486 49.8066 27.0698 48.6229 26.3004 47.7706C25.531 46.9183 24.4479 46.4922 23.0511 46.4922C22.1397 46.4922 21.3348 46.6934 20.6364 47.0959C19.9498 47.4865 19.4112 48.0488 19.0206 48.7827C18.6418 49.5166 18.4465 50.4044 18.4347 51.446ZM49.2275 67.4616C47.4874 67.4616 45.9426 67.1716 44.5932 66.5916C43.2556 65.9998 42.1962 65.112 41.415 63.9283C40.6455 62.7327 40.2608 61.2353 40.2608 59.4361C40.2608 57.9209 40.5272 56.6425 41.0598 55.6009C41.5925 54.5592 42.3264 53.7128 43.2615 53.0618C44.1967 52.4107 45.2739 51.9195 46.4931 51.5881C47.7123 51.2448 49.0144 51.014 50.3993 50.8956C51.95 50.7536 53.1988 50.6056 54.1458 50.4517C55.0927 50.286 55.7793 50.0552 56.2054 49.7592C56.6434 49.4515 56.8624 49.0194 56.8624 48.4631V48.3743C56.8624 47.4628 56.5487 46.7585 55.9213 46.2614C55.294 45.7642 54.4476 45.5156 53.3823 45.5156C52.2341 45.5156 51.3108 45.7642 50.6124 46.2614C49.914 46.7585 49.4701 47.4451 49.2807 48.321L41.2729 48.0369C41.5096 46.3797 42.1193 44.9001 43.1017 43.598C44.0961 42.2841 45.4573 41.2543 47.1855 40.5085C48.9256 39.7509 51.0149 39.3722 53.4533 39.3722C55.1934 39.3722 56.7973 39.5793 58.2651 39.9936C59.7329 40.3961 61.0113 40.9879 62.1003 41.7692C63.1893 42.5386 64.0298 43.4856 64.6216 44.6101C65.2253 45.7346 65.5272 47.0189 65.5272 48.4631V67H57.3596V63.2003H57.1465C56.6612 64.1236 56.0397 64.9048 55.2821 65.544C54.5364 66.1832 53.6545 66.6626 52.6365 66.9822C51.6304 67.3018 50.494 67.4616 49.2275 67.4616ZM51.9086 61.7798C52.8437 61.7798 53.6841 61.5904 54.4299 61.2116C55.1874 60.8329 55.7911 60.312 56.2409 59.6491C56.6908 58.9744 56.9157 58.1932 56.9157 57.3054V54.7131C56.6671 54.8433 56.3652 54.9616 56.0101 55.0682C55.6668 55.1747 55.2881 55.2753 54.8738 55.37C54.4595 55.4647 54.0333 55.5476 53.5953 55.6186C53.1574 55.6896 52.7372 55.7547 52.3347 55.8139C51.5179 55.9441 50.8195 56.1454 50.2395 56.4176C49.6713 56.6899 49.2334 57.045 48.9256 57.483C48.6297 57.9091 48.4817 58.4181 48.4817 59.0099C48.4817 59.9096 48.8013 60.5961 49.4405 61.0696C50.0916 61.5431 50.9142 61.7798 51.9086 61.7798ZM70.8361 67V39.7273H79.2701V44.6989H79.5542C80.0513 42.8996 80.8622 41.562 81.9867 40.6861C83.1112 39.7983 84.4192 39.3544 85.9107 39.3544C86.3132 39.3544 86.7275 39.384 87.1536 39.4432C87.5797 39.4905 87.9763 39.5675 88.3432 39.674V47.2202C87.9289 47.0781 87.3844 46.9657 86.7097 46.8828C86.0468 46.8 85.455 46.7585 84.9341 46.7585C83.9043 46.7585 82.9751 46.9893 82.1465 47.451C81.3297 47.9008 80.6846 48.5341 80.2111 49.3509C79.7495 50.1558 79.5186 51.1027 79.5186 52.1918V67H70.8361ZM108.545 39.7273V46.1193H91.3395V39.7273H108.545ZM94.9439 33.1932H103.626V58.424C103.626 58.9567 103.709 59.3887 103.875 59.7202C104.053 60.0398 104.307 60.2706 104.638 60.4126C104.97 60.5429 105.366 60.608 105.828 60.608C106.16 60.608 106.509 60.5784 106.876 60.5192C107.254 60.4482 107.539 60.389 107.728 60.3416L109.042 66.6094C108.628 66.7277 108.042 66.8757 107.284 67.0533C106.538 67.2308 105.645 67.3433 104.603 67.3906C102.567 67.4853 100.821 67.2486 99.3651 66.6804C97.9209 66.1004 96.8142 65.2008 96.0447 63.9815C95.2872 62.7623 94.9202 61.2294 94.9439 59.3828V33.1932ZM120.663 67.4616C118.923 67.4616 117.378 67.1716 116.029 66.5916C114.691 65.9998 113.632 65.112 112.85 63.9283C112.081 62.7327 111.696 61.2353 111.696 59.4361C111.696 57.9209 111.963 56.6425 112.495 55.6009C113.028 54.5592 113.762 53.7128 114.697 53.0618C115.632 52.4107 116.709 51.9195 117.929 51.5881C119.148 51.2448 120.45 51.014 121.835 50.8956C123.386 50.7536 124.634 50.6056 125.581 50.4517C126.528 50.286 127.215 50.0552 127.641 49.7592C128.079 49.4515 128.298 49.0194 128.298 48.4631V48.3743C128.298 47.4628 127.984 46.7585 127.357 46.2614C126.73 45.7642 125.883 45.5156 124.818 45.5156C123.67 45.5156 122.746 45.7642 122.048 46.2614C121.35 46.7585 120.906 47.4451 120.716 48.321L112.708 48.0369C112.945 46.3797 113.555 44.9001 114.537 43.598C115.532 42.2841 116.893 41.2543 118.621 40.5085C120.361 39.7509 122.45 39.3722 124.889 39.3722C126.629 39.3722 128.233 39.5793 129.701 39.9936C131.168 40.3961 132.447 40.9879 133.536 41.7692C134.625 42.5386 135.465 43.4856 136.057 44.6101C136.661 45.7346 136.963 47.0189 136.963 48.4631V67H128.795V63.2003H128.582C128.097 64.1236 127.475 64.9048 126.718 65.544C125.972 66.1832 125.09 66.6626 124.072 66.9822C123.066 67.3018 121.93 67.4616 120.663 67.4616ZM123.344 61.7798C124.279 61.7798 125.12 61.5904 125.865 61.2116C126.623 60.8329 127.227 60.312 127.676 59.6491C128.126 58.9744 128.351 58.1932 128.351 57.3054V54.7131C128.103 54.8433 127.801 54.9616 127.446 55.0682C127.102 55.1747 126.724 55.2753 126.309 55.37C125.895 55.4647 125.469 55.5476 125.031 55.6186C124.593 55.6896 124.173 55.7547 123.77 55.8139C122.953 55.9441 122.255 56.1454 121.675 56.4176C121.107 56.6899 120.669 57.045 120.361 57.483C120.065 57.9091 119.917 58.4181 119.917 59.0099C119.917 59.9096 120.237 60.5961 120.876 61.0696C121.527 61.5431 122.35 61.7798 123.344 61.7798ZM142.272 39.7273H150.954V68.1364C150.954 70.3854 150.493 72.1728 149.569 73.4986C148.658 74.8243 147.368 75.7772 145.699 76.3572C144.029 76.9373 142.059 77.2273 139.786 77.2273C139.478 77.2273 139.188 77.2214 138.916 77.2095C138.644 77.1977 138.348 77.1858 138.028 77.174V70.5866C138.241 70.6103 138.431 70.6281 138.596 70.6399C138.762 70.6518 138.928 70.6577 139.093 70.6577C140.289 70.6577 141.118 70.4328 141.579 69.983C142.041 69.545 142.272 68.8703 142.272 67.9588V39.7273ZM146.604 36.549C145.385 36.549 144.337 36.1465 143.461 35.3416C142.585 34.5249 142.147 33.5424 142.147 32.3942C142.147 31.2578 142.585 30.2872 143.461 29.4822C144.337 28.6655 145.385 28.2571 146.604 28.2571C147.835 28.2571 148.883 28.6655 149.747 29.4822C150.623 30.2872 151.061 31.2578 151.061 32.3942C151.061 33.5424 150.623 34.5249 149.747 35.3416C148.883 36.1465 147.835 36.549 146.604 36.549Z" fill="black"/>
<path fill-rule="evenodd" clip-rule="evenodd" d="M163.75 13H161V18.5H163.75C162.231 18.5 161 19.7312 161 21.25V24H166.5V21.25C166.5 22.7688 167.731 24 169.25 24H172V18.5H169.25C170.769 18.5 172 17.2688 172 15.75V13H166.5V15.75C166.5 14.2312 165.269 13 163.75 13ZM166.5 18.5H163.75C165.269 18.5 166.5 19.7312 166.5 21.25V18.5ZM166.5 18.5V15.75C166.5 17.2688 167.731 18.5 169.25 18.5H166.5Z" fill="black"/>
</svg>
